<svg width="27" height="31" viewBox="0 0 27 31" fill="none" xmlns="http://www.w3.org/2000/svg">
<path d="M14.8186 21.0979H12.4577C10.7875 21.0979 9.41861 19.5227 9.41861 17.5817C9.41861 17.005 9.84559 16.5268 10.3605 16.5268C10.8754 16.5268 11.3023 17.005 11.3023 17.5817C11.3023 18.3552 11.8172 18.9882 12.4577 18.9882H14.8186C15.3084 18.9882 15.6977 18.4959 15.6977 17.8911C15.6977 17.1316 15.5093 17.0191 15.0823 16.8503L11.3023 15.3734C10.4986 15.0499 9.41861 14.403 9.41861 12.3354C9.41861 10.5773 10.6619 9.12857 12.1814 9.12857H14.5423C16.2126 9.12857 17.5814 10.7039 17.5814 12.6448C17.5814 13.2215 17.1544 13.6997 16.6395 13.6997C16.1247 13.6997 15.6977 13.2215 15.6977 12.6448C15.6977 11.8713 15.1828 11.2383 14.5423 11.2383H12.1814C11.6916 11.2383 11.3023 11.7306 11.3023 12.3354C11.3023 13.0949 11.4907 13.2074 11.9177 13.3762L15.6977 14.853C16.5014 15.1765 17.5814 15.8235 17.5814 17.8911C17.5814 19.6633 16.3381 21.0979 14.8186 21.0979Z" fill="white"/>
<path d="M13.5 22.5042C12.9851 22.5042 12.5581 22.026 12.5581 21.4493V8.79069C12.5581 8.21403 12.9851 7.73581 13.5 7.73581C14.0149 7.73581 14.4419 8.21403 14.4419 8.79069V21.4493C14.4419 22.026 14.0149 22.5042 13.5 22.5042Z" fill="white"/>
<path d="M13.5 30.24C6.05302 30.24 0 23.4606 0 15.12C0 6.77939 6.05302 0 13.5 0C14.0149 0 14.4419 0.478214 14.4419 1.05488C14.4419 1.63155 14.0149 2.10977 13.5 2.10977C7.09535 2.10977 1.88372 7.94679 1.88372 15.12C1.88372 22.2932 7.09535 28.1302 13.5 28.1302C19.9047 28.1302 25.1163 22.2932 25.1163 15.12C25.1163 14.5433 25.5433 14.0651 26.0581 14.0651C26.573 14.0651 27 14.5433 27 15.12C27 23.4606 20.947 30.24 13.5 30.24Z" fill="white"/>
<path d="M26.0581 7.73582C25.5433 7.73582 25.1163 7.2576 25.1163 6.68093V2.10977H21.0349C20.52 2.10977 20.093 1.63155 20.093 1.05488C20.093 0.478214 20.52 0 21.0349 0H26.0581C26.573 0 27 0.478214 27 1.05488V6.68093C27 7.2576 26.573 7.73582 26.0581 7.73582Z" fill="white"/>
<path d="M19.7784 9.14238C19.5398 9.14238 19.3012 9.04393 19.1129 8.83295C18.7487 8.42506 18.7487 7.74994 19.1129 7.34205L25.3919 0.309491C25.7561 -0.0983977 26.3589 -0.0983977 26.7231 0.309491C27.0873 0.717379 27.0873 1.3925 26.7231 1.80039L20.444 8.83295C20.2557 9.04393 20.017 9.14238 19.7784 9.14238Z" fill="white"/>
</svg>
